<?xml version="1.0" encoding="iso-8859-1"?>
<!-- Generator: Adobe Illustrator 19.0.0, SVG Export Plug-In . SVG Version: 6.00 Build 0)  -->
<svg version="1.1" id="Capa_1" xmlns="http://www.w3.org/2000/svg" xmlns:xlink="http://www.w3.org/1999/xlink" x="0px" y="0px"
	 viewBox="0 0 58 58" style="enable-background:new 0 0 58 58;" xml:space="preserve">
<g>
	<g>
		<circle cx="20" cy="34.325" r="2"/>
		<path d="M53,47.325v-16.5c0-10.201-8.301-18.5-18.505-18.5h-6.061c-0.064-0.563-0.058-1.589,0.465-2.239
			C29.303,9.581,30.01,9.325,31,9.325h1v-2h-1c-1.627,0-2.859,0.508-3.662,1.509c-0.334,0.417-0.553,0.878-0.694,1.337
			c-0.999-1.819-2.968-3.748-6.479-4.333l-0.986-0.165l-0.329,1.973l0.986,0.165c4.014,0.669,5.201,3.308,5.54,4.514h-1.87
			C13.301,12.325,5,20.624,5,30.825v16.5H0v2h6h1h3v2c0,0.552,0.448,1,1,1h3h2h1h2h3c0.552,0,1-0.448,1-1v-2h12v2
			c0,0.552,0.448,1,1,1h3h2h1h2h3c0.552,0,1-0.448,1-1v-2h3h1h6v-2H53z M21,50.325h-2v-3h-2v3h-1v-3h-2v3h-2v-1v-1
			c0-1.103,0.9-2,2.006-2h4.988c1.106,0,2.006,0.897,2.006,2v1L21,50.325L21,50.325z M46,50.325h-2v-3h-2v3h-1v-3h-2v3h-2v-1v-1
			c0-1.103,0.9-2,2.006-2h4.988c1.106,0,2.006,0.897,2.006,2v1L46,50.325L46,50.325z M47.858,47.325c-0.448-1.72-2.002-3-3.864-3
			h-4.988c-1.861,0-3.416,1.28-3.864,3H22.858c-0.448-1.72-2.003-3-3.864-3h-4.988c-1.861,0-3.416,1.28-3.864,3H7v-16.5
			c0-9.098,7.404-16.5,16.505-16.5h10.989c9.101,0,16.505,7.402,16.505,16.5v16.5H47.858z"/>
		<circle cx="38" cy="34.325" r="2"/>
	</g>
</g>
<g>
</g>
<g>
</g>
<g>
</g>
<g>
</g>
<g>
</g>
<g>
</g>
<g>
</g>
<g>
</g>
<g>
</g>
<g>
</g>
<g>
</g>
<g>
</g>
<g>
</g>
<g>
</g>
<g>
</g>
</svg>
