<svg width="512" height="512" viewBox="0 0 512 512" fill="none" xmlns="http://www.w3.org/2000/svg">
<path d="M247.866 462.018C246.678 462.018 245.473 461.825 244.294 461.419C242.891 460.938 103.235 413.211 44.5504 413.211H11.0026C4.92767 413.211 0.00270181 408.286 0.00270181 402.211C0.00270181 396.136 4.92767 391.211 11.0026 391.211H44.5494C98.0281 391.211 207.67 426.077 241.481 437.267C243.497 431.052 245 424.064 245 418.476C245 409.295 239.213 401.166 230.566 398.15C227.051 397.205 203.156 390.561 178.917 378.297C141.819 359.527 123.01 337.475 123.01 312.751C123.01 268.045 157.303 233.238 158.763 231.778C161.775 228.767 166.257 227.766 170.261 229.205C170.576 229.318 202.029 240.599 218.248 244.653C223.829 246.049 229.617 245.186 234.548 242.228C239.48 239.269 242.963 234.566 244.358 228.986C244.879 226.904 244.996 225.666 245.011 222.035C230.916 215.214 195.468 198.376 170.923 189.472C163.575 186.807 157.042 184.744 151.497 186.481C146.255 188.125 142.22 193.463 137.548 199.645L137.043 200.313C76.6333 280.162 17.7486 305.581 15.2706 306.624C9.67264 308.981 3.22168 306.354 0.864697 300.755C-1.49229 295.156 1.1347 288.706 6.73366 286.349C7.26666 286.121 62.9423 261.795 119.498 187.04L119.996 186.381C126.068 178.346 132.952 169.239 144.916 165.489C156.997 161.699 168.094 165.043 178.425 168.791C210.691 180.496 258.848 204.294 260.882 205.302C264.629 207.157 267 210.978 267 215.159C267 216.438 267.004 217.587 267.007 218.63C267.03 225.507 267.041 228.959 265.701 234.321C262.882 245.602 255.838 255.109 245.868 261.092C235.897 267.076 224.193 268.819 212.911 265.995C200.389 262.865 180.423 256.079 169.862 252.395C161.66 262.358 145.009 285.896 145.009 312.75C145.009 323.578 152.614 340.333 188.849 358.665C212.463 370.613 236.298 376.909 236.536 376.972C236.77 377.034 237.003 377.102 237.232 377.179C255.037 383.112 266.999 399.708 266.998 418.476C266.999 430.96 262.372 446.204 257.785 455.771C255.912 459.68 251.995 462.018 247.866 462.018Z" fill="black"/>
<path d="M264.135 462.018C260.006 462.018 256.089 459.68 254.215 455.772C249.629 446.206 245.001 430.964 245.001 418.476C245.001 399.708 256.963 383.113 274.768 377.18C274.997 377.103 275.23 377.034 275.464 376.973C275.7 376.911 299.833 370.512 323.445 358.519C343.311 348.427 366.992 332.295 366.992 312.751C366.992 285.902 350.349 262.371 342.138 252.396C331.577 256.081 311.612 262.866 299.088 265.997C287.806 268.817 276.101 267.076 266.132 261.094C256.162 255.111 249.118 245.603 246.299 234.322C244.955 228.942 244.967 225.512 244.992 218.68C244.996 217.622 245 216.457 245 215.159C245 210.977 247.371 207.157 251.118 205.302C253.153 204.294 301.309 180.496 333.576 168.791C343.907 165.043 355.004 161.7 367.086 165.489C379.049 169.239 385.933 178.345 392.005 186.381L392.503 187.04C449.058 261.796 504.732 286.121 505.289 286.358C510.868 288.737 513.48 295.188 511.113 300.773C508.747 306.357 502.316 308.978 496.728 306.624C494.25 305.581 435.366 280.162 374.958 200.313L374.453 199.645C369.781 193.463 365.746 188.124 360.505 186.481C354.96 184.745 348.426 186.807 341.078 189.472C316.531 198.376 281.081 215.215 266.988 222.036C267.004 225.591 267.122 226.905 267.642 228.987C269.037 234.566 272.52 239.269 277.452 242.228C282.385 245.188 288.174 246.048 293.751 244.654C309.973 240.598 341.425 229.318 341.74 229.205C345.749 227.764 350.227 228.768 353.238 231.778C354.698 233.238 388.991 268.045 388.991 312.751C388.991 337.475 370.181 359.527 333.084 378.297C308.845 390.561 284.948 397.205 281.433 398.15C272.787 401.167 267 409.296 267.001 418.475C267 424.064 268.503 431.053 270.52 437.267C304.33 426.078 413.972 391.211 467.45 391.211H500.998C507.073 391.211 511.998 396.136 511.998 402.211C511.998 408.286 507.073 413.211 500.998 413.211H467.45C408.766 413.211 269.11 460.938 267.707 461.419C266.529 461.825 265.323 462.018 264.135 462.018Z" fill="black"/>
<path d="M256.001 161.442C254.526 161.442 253.052 161.145 251.668 160.552C251.042 160.284 236.17 153.861 221.143 143.127C199.199 127.452 188.072 110.76 188.072 93.5117C188.072 69.5087 207.6 49.9807 231.603 49.9807C240.375 49.9807 248.862 52.6367 256.001 57.4707C263.141 52.6367 271.627 49.9807 280.399 49.9807C304.402 49.9807 323.93 69.5087 323.93 93.5117C323.93 110.76 312.803 127.452 290.859 143.127C275.832 153.86 260.96 160.284 260.334 160.552C258.95 161.145 257.475 161.442 256.001 161.442ZM231.602 71.9807C219.73 71.9807 210.071 81.6397 210.071 93.5117C210.071 102.908 218.442 114.099 233.643 125.02C242.243 131.199 250.994 135.837 256.033 138.314C271.502 130.755 301.93 112.088 301.93 93.5117C301.93 81.6397 292.271 71.9807 280.399 71.9807C274.23 71.9807 268.343 74.6427 264.25 79.2837C262.162 81.6507 259.157 83.0067 256.001 83.0067C252.845 83.0067 249.84 81.6517 247.752 79.2837C243.658 74.6427 237.771 71.9807 231.602 71.9807Z" fill="#B8B8B8"/>
<path d="M501 432.449C494.925 432.449 490 427.525 490 421.45V270.582C490 264.507 494.925 259.583 501 259.583C507.075 259.583 512 264.507 512 270.582V421.45C512 427.525 507.075 432.449 501 432.449Z" fill="#B8B8B8"/>
<path d="M11.0019 432.449C4.92692 432.449 0.00195312 427.525 0.00195312 421.45V270.582C0.00195312 264.507 4.92692 259.583 11.0019 259.583C17.0769 259.583 22.0018 264.507 22.0018 270.582V421.45C22.0018 427.525 17.0769 432.449 11.0019 432.449Z" fill="#B8B8B8"/>
</svg>
